{"title":"Instant Mom S03E18 HDTV x264-CRiMSON","uid":12766902,"size":182511327,"categoryP":"video","categoryS":"tv_shows","magnet":"?xt=urn:btih:4fbd0ad38852694c05e5b500af5c8223abf72a88&amp;dn=Instant+Mom+S03E18+HDTV+x264-CRiMSON&amp;tr=udp%3A%2F%2Ftracker.leechers-paradise.org%3A6969&amp;tr=udp%3A%2F%2Fzer0day.ch%3A1337&amp;tr=udp%3A%2F%2Fopen.demonii.com%3A1337&amp;tr=udp%3A%2F%2Ftracker.coppersurfer.tk%3A6969&amp;tr=udp%3A%2F%2Fexodus.desync.com%3A6969","seeders":0,"leechers":1,"uploader":"Mulva1989","files":2,"time":1447610277,"description":"Instant Mom S03E18 HDTV x264-CRiMSON\r\n\r\nJames tries to trick Stephanie and Charlie into thinking one of his friends is actually a foreign exchange student.\r\n\r\nScreens @ \nhttp://extraimago.com/images/2015/11/15/Instant.Mom.S03E18.HDTV.x264-CRiMSON.mp4_snapshot_00.06_2015.11.15_17.49.40.jpg \nhttp://extraimago.com/images/2015/11/15/Instant.Mom.S03E18.HDTV.x264-CRiMSON.mp4_snapshot_13.56_2015.11.15_17.49.53.jpg \nhttp://extraimago.com/images/2015/11/15/Instant.Mom.S03E18.HDTV.x264-CRiMSON.mp4.jpg\r\n\r\nFormat                      : MPEG-4\r\nFormat profile              : Base Media\r\nCodec ID                    : isom\r\nFile size                   : 174 MiB\r\nDuration                    : 20mn 29s\r\nOverall bit rate mode       : Variable\r\nOverall bit rate            : 1 187 Kbps\r\nEncoded date                : UTC 2015-11-15 02:59:53\r\nTagged date                 : UTC 2015-11-15 02:59:53\r\n\r\nVideo\r\nID                          : 1\r\nFormat                      : AVC\r\nFormat/Info                 : Advanced Video Codec\r\nFormat profile              :   \r\nFormat settings, CABAC      : Yes\r\nFormat settings, ReFrames   : 5 frames\r\nCodec ID                    : avc1\r\nCodec ID/Info               : Advanced Video Coding\r\nDuration                    : 20mn 29s\r\nBit rate                    : 1 048 Kbps\r\nMaximum bit rate            : 2 341 Kbps\r\nWidth                       : 720 pixels\r\nHeight                      : 404 pixels\r\nDisplay aspect ratio        : 16:9\r\nFrame rate mode             : Constant\r\nFrame rate                  : 23.976 fps\r\nColor space                 : YUV\r\nChroma subsampling          : 4:2:0\r\nBit depth                   : 8 bits\r\nScan type                   : Progressive\r\nBits/(Pixel*Frame)          : 0.150\r\nStream size                 : 154 MiB (88%)\r\nWriting library             : x264 core 148 r2638 7599210\r\nEncoding settings           : cabac=1 / ref=5 / deblock=1:-1:-1 / analyse=0x3:0x113 / me=umh / subme=8 / psy=1 / psy_rd=1.00:0.15 / mixed_ref=1 / me_range=16 / chroma_me=1 / trellis=1 / 8x8dct=1 / cqm=0 / deadzone=21,11 / fast_pskip=1 / chroma_qp_offset=-3 / threads=12 / lookahead_threads=2 / sliced_threads=0 / nr=0 / decimate=1 / interlaced=0 / bluray_compat=0 / constrained_intra=0 / bframes=3 / b_pyramid=2 / b_adapt=2 / b_bias=0 / direct=3 / weightb=1 / open_gop=0 / weightp=2 / keyint=240 / keyint_min=23 / scenecut=40 / intra_refresh=0 / rc_lookahead=50 / rc=crf / mbtree=1 / crf=19.0 / qcomp=0.60 / qpmin=0 / qpmax=69 / qpstep=4 / ip_ratio=1.40 / aq=1:1.00\r\nEncoded date                : UTC 2015-11-15 02:55:43\r\nTagged date                 : UTC 2015-11-15 02:59:54\r\nMatrix coefficients         : BT.709\r\nColor range                 : Limited\r\n\r\nAudio\r\nID                          : 2\r\nFormat                      : AAC\r\nFormat/Info                 : Advanced Audio Codec\r\nFormat profile              : LC\r\nCodec ID                    : 40\r\nDuration                    : 20mn 29s\r\nBit rate mode               : Variable\r\nBit rate                    : 132 Kbps\r\nMaximum bit rate            : 150 Kbps\r\nChannel(s)                  : 2 channels\r\nChannel positions           : Front: L R\r\nSampling rate               : 48.0 KHz\r\nCompression mode            : Lossy\r\nStream size                 : 19.7 MiB (11%)\r\nEncoded date                : UTC 2015-11-15 02:56:45\r\nTagged date                 : UTC 2015-11-15 02:59:54","torrent":{"xt":"urn:btih:4fbd0ad38852694c05e5b500af5c8223abf72a88","amp;dn":"Instant+Mom+S03E18+HDTV+x264-CRiMSON","amp;tr":["udp%3A%2F%2Ftracker.leechers-paradise.org%3A6969","udp%3A%2F%2Fzer0day.ch%3A1337","udp%3A%2F%2Fopen.demonii.com%3A1337","udp%3A%2F%2Ftracker.coppersurfer.tk%3A6969","udp%3A%2F%2Fexodus.desync.com%3A6969"],"infoHash":"4fbd0ad38852694c05e5b500af5c8223abf72a88","infoHashBuffer":{"type":"Buffer","data":[79,189,10,211,136,82,105,76,5,229,181,0,175,92,130,35,171,247,42,136]},"announce":[],"urlList":[]}}